<svg width="90" height="97" viewBox="0 0 90 97" fill="none" xmlns="http://www.w3.org/2000/svg">
<g id="call_FILL0_wght400_GRAD0_opsz48(2) 1" clip-path="url(#clip0_541_115)">
<path id="Vector" d="M69.257 98C62.3269 98 55.2623 95.8222 48.0633 91.4667C40.8643 87.1111 34.1881 80.9278 28.0346 72.9167C21.8811 64.9056 17.1315 56.2139 13.786 46.8417C10.4404 37.4694 8.76758 28.2722 8.76758 19.25C8.76758 17.75 9.15163 16.5 9.91974 15.5C10.6879 14.5 11.648 14 12.8002 14H25.3462C26.1826 14 26.8995 14.3889 27.4969 15.1667C28.0943 15.9444 28.5125 16.9167 28.7515 18.0833L31.1647 32.7414C31.2884 33.8583 31.2756 34.8639 31.1263 35.7583C30.9769 36.6528 30.6564 37.4199 30.1648 38.0597L21.2239 49.8167C22.7772 53.2389 24.4202 56.4278 26.1527 59.3833C27.8852 62.3389 29.797 65.1389 31.888 67.7833C34.0985 70.7389 36.4284 73.4417 38.8779 75.8917C41.3273 78.3417 43.8963 80.5 46.5847 82.3667L55.098 70.9333C55.6954 70.0778 56.387 69.4944 57.1727 69.1833C57.9583 68.8722 58.7305 68.7944 59.4891 68.95L70.1532 71.9833C71.0493 72.2944 71.7961 72.9184 72.3935 73.8551C72.9909 74.7919 73.2896 75.8402 73.2896 77V92.75C73.2896 94.25 72.9056 95.5 72.1375 96.5C71.3694 97.5 70.4092 98 69.257 98ZM18.5355 43.4L25.7942 33.8333L23.7331 21H14.1444C14.2639 24.2667 14.6672 27.7083 15.3542 31.325C16.0412 34.9417 17.1017 38.9667 18.5355 43.4ZM51.6031 85.75C54.0525 87.2278 56.7111 88.4333 59.5787 89.3667C62.4464 90.3 65.2244 90.8444 67.9128 91V78.5167L58.6826 76.0667L51.6031 85.75Z" fill="#0E76A8"/>
</g>
<defs>
<clipPath id="clip0_541_115">
<rect width="90" height="97" fill="white"/>
</clipPath>
</defs>
</svg>
