<svg width="90" height="97" viewBox="0 0 90 97" fill="none" xmlns="http://www.w3.org/2000/svg">
<g id="location_on_FILL0_wght700_GRAD0_opsz48(1) 1">
<path id="Vector" d="M45.0241 48.1969C47.0705 48.1969 48.7969 47.4473 50.2031 45.948C51.6094 44.4489 52.3125 42.5964 52.3125 40.3907C52.3125 38.1851 51.6105 36.3245 50.2064 34.8089C48.8024 33.2933 47.068 32.5355 45.0033 32.5355C42.9386 32.5355 41.2188 33.2921 39.8438 34.8054C38.4688 36.3186 37.7813 38.1878 37.7813 40.4132C37.7813 42.6385 38.4768 44.4921 39.8678 45.974C41.2588 47.456 42.9776 48.1969 45.0241 48.1969ZM45 78.9136C53 71.1671 58.9219 64.2962 62.7656 58.3011C66.6094 52.306 68.5313 46.5129 68.5313 40.9219C68.5313 33.3427 66.2612 27.1368 61.7211 22.3042C57.1809 17.4716 51.6119 15.0553 45.0141 15.0553C38.4161 15.0553 32.8424 17.4716 28.293 22.3042C23.7435 27.1368 21.4688 33.3427 21.4688 40.9219C21.4688 46.5129 23.4375 52.2891 27.375 58.2506C31.3125 64.212 37.1875 71.0997 45 78.9136ZM45 91.4428C34.1875 81.7428 26.0938 72.8679 20.7188 64.8183C15.3438 56.7686 12.6562 48.8032 12.6562 40.9219C12.6562 30.1631 15.9075 21.5624 22.4099 15.1199C28.9123 8.67751 36.4424 5.4563 45 5.4563C53.5309 5.4563 61.0698 8.67751 67.6169 15.1199C74.164 21.5624 77.4375 30.1631 77.4375 40.9219C77.4375 48.8032 74.7344 56.7686 69.3281 64.8183C63.9219 72.8679 55.8125 81.7428 45 91.4428Z" fill="#0E76A8"/>
</g>
</svg>
