<svg width="90" height="97" viewBox="0 0 90 97" fill="none" xmlns="http://www.w3.org/2000/svg">
<g id="mail_FILL0_wght700_GRAD0_opsz48 1">
<path id="Vector" d="M13.9688 83.3593C11.5281 83.3593 9.44922 82.434 7.73203 80.5832C6.01484 78.7325 5.15625 76.4919 5.15625 73.8614V23.1385C5.15625 20.4802 6.01484 18.2159 7.73203 16.3454C9.44922 14.4748 11.5281 13.5396 13.9688 13.5396H76.0312C78.4977 13.5396 80.5987 14.4748 82.3342 16.3454C84.0697 18.2159 84.9375 20.4802 84.9375 23.1385V73.8614C84.9375 76.4919 84.0697 78.7325 82.3342 80.5832C80.5987 82.434 78.4977 83.3593 76.0312 83.3593H13.9688ZM45 53.552L13.9688 31.0198V73.8614H76.0312V31.0198L45 53.552ZM45 45.1656L75.6562 23.1385H14.4375L45 45.1656ZM13.9688 31.0198V23.1385V73.8614V31.0198Z" fill="#0E76A8"/>
</g>
</svg>
